<?xml version="1.0" encoding="UTF-8"?>
<svg width="164px" height="32px" viewBox="0 0 164 32" version="1.1" xmlns="http://www.w3.org/2000/svg" xmlns:xlink="http://www.w3.org/1999/xlink">
    <!-- Generator: Sketch 51.3 (57544) - http://www.bohemiancoding.com/sketch -->
    <title>Artboard</title>
    <desc>Created with Sketch.</desc>
    <defs>
        <polygon id="path-1" points="26 15.5 26 0 0 0 0 15.5 0 31 26 31"></polygon>
    </defs>
    <g id="Artboard" stroke="none" stroke-width="1" fill="none" fill-rule="evenodd">
        <g id="Group">
            <path d="M41.232,23.56 C36.624,23.56 33,20.2 33,15.28 C33,10.36 36.624,7 41.232,7 C44.064,7 46.032,8.344 47.304,10.168 L45.648,11.104 C44.736,9.736 43.056,8.776 41.232,8.776 C37.728,8.776 35.064,11.44 35.064,15.28 C35.064,19.072 37.728,21.784 41.232,21.784 C43.056,21.784 44.736,20.8 45.648,19.456 L47.328,20.368 C45.984,22.216 44.064,23.56 41.232,23.56 Z M61.688,23.272 L59.336,23.272 L55.28,16.912 L52.064,16.912 L52.064,23.272 L50.072,23.272 L50.072,7.264 L56.504,7.264 C59.432,7.264 61.544,9.136 61.544,12.088 C61.544,14.968 59.552,16.552 57.368,16.744 L61.688,23.272 Z M56.264,15.16 C58.16,15.16 59.48,13.888 59.48,12.088 C59.48,10.264 58.16,9.04 56.264,9.04 L52.064,9.04 L52.064,15.16 L56.264,15.16 Z M75.376,23.272 L64.888,23.272 L64.888,7.264 L75.376,7.264 L75.376,9.04 L66.88,9.04 L66.88,14.2 L75.208,14.2 L75.208,15.976 L66.88,15.976 L66.88,21.496 L75.376,21.496 L75.376,23.272 Z M84.216,23.272 L78.744,23.272 L78.744,7.264 L84.216,7.264 C89.208,7.264 92.424,10.744 92.424,15.28 C92.424,19.84 89.208,23.272 84.216,23.272 Z M84.216,21.496 C88.104,21.496 90.36,18.712 90.36,15.28 C90.36,11.824 88.176,9.04 84.216,9.04 L80.736,9.04 L80.736,21.496 L84.216,21.496 Z M97.736,23.272 L95.744,23.272 L95.744,7.264 L97.736,7.264 L97.736,23.272 Z M107.632,23.272 L105.64,23.272 L105.64,9.04 L100.576,9.04 L100.576,7.264 L112.72,7.264 L112.72,9.04 L107.632,9.04 L107.632,23.272 Z M134.144,23.272 L131.648,23.272 L125.576,16.072 L123.968,17.896 L123.968,23.272 L121.976,23.272 L121.976,7.264 L123.968,7.264 L123.968,15.52 L131.048,7.264 L133.544,7.264 L126.872,14.848 L134.144,23.272 Z M147.088,23.272 L136.6,23.272 L136.6,7.264 L147.088,7.264 L147.088,9.04 L138.592,9.04 L138.592,14.2 L146.92,14.2 L146.92,15.976 L138.592,15.976 L138.592,21.496 L147.088,21.496 L147.088,23.272 Z M157.104,23.272 L155.112,23.272 L155.112,16.504 L148.8,7.264 L151.128,7.264 L156.096,14.704 L161.064,7.264 L163.392,7.264 L157.104,16.504 L157.104,23.272 Z" id="CREDIT-KEY" fill="#405265"></path>
            <mask id="mask-2" fill="white">
                <use xlink:href="#path-1"></use>
            </mask>
            <g id="path-1"></g>
            <path d="M13.5556943,14.9262075 L13.5556943,7.84397484 L20.4145449,7.84397484 C20.4145449,11.755434 17.3435925,14.9262075 13.5556943,14.9262075 Z M13.5556943,23.1560252 L13.5556943,16.0737925 C17.3435925,16.0737925 20.4145449,19.244566 20.4145449,23.1560252 L13.5556943,23.1560252 Z M12.4443057,14.9262075 L5.58545513,14.9262075 C5.58545513,11.0149434 8.65621868,7.84397484 12.4443057,7.84397484 L12.4443057,14.9262075 Z M12.4443057,23.1560252 C8.65621868,23.1560252 5.58545513,19.9852516 5.58545513,16.0737925 L12.4443057,16.0737925 L12.4443057,23.1560252 Z M23.6323984,6.33862264 L13,0 L2.36760156,6.33862264 C0.902554866,7.21188679 0,8.82603145 0,10.5729497 L0,20.4270503 C0,22.1739686 0.902554866,23.7881132 2.36760156,24.6615723 L13,31 L23.6323984,24.6615723 C25.0974451,23.7881132 26,22.1739686 26,20.4270503 L26,10.5729497 C26,8.82603145 25.0974451,7.21188679 23.6323984,6.33862264 Z" id="Fill-1" fill="#3D9CE5" fill-rule="nonzero" mask="url(#mask-2)"></path>
        </g>
    </g>
</svg>